<svg xmlns="http://www.w3.org/2000/svg" viewBox="0 0 1116 640" width="1116" height="640"><defs></defs><g transform="matrix(1,0,0,1,-27.010533046,-190.147984251)">
<!--<rect width="105%" height="160%" fill="#303030"/>-->
<g>
	<g>
		<path d="M107.01053304616944,510.14798425090345 C151.15331526849016,510.14798425090345 187.01053304616872,546.005202028582 187.01053304616872,590.1479842509027 C187.01053304616872,634.2907664732235 151.15331526849016,670.147984250902 107.01053304616944,670.147984250902 C62.86775082384872,670.147984250902 27.010533046170167,634.2907664732235 27.010533046170167,590.1479842509027 C27.010533046170167,546.005202028582 62.86775082384872,510.14798425090345 107.01053304616944,510.14798425090345 Z" transform="matrix(1,0,0,1,0,0)" fill="#ffffff" stroke="#ffffff" stroke-width="2"/>
	</g>
	<g>
		<path d="M1057.010533045652,350.14798425086155 C1101.1533152679717,350.14798425086155 1137.0105330456495,386.0052020285393 1137.0105330456495,430.14798425085905 C1137.0105330456495,474.2907664731788 1101.1533152679717,510.14798425085655 1057.010533045652,510.14798425085655 C1012.8677508233322,510.14798425085655 977.0105330456545,474.2907664731788 977.0105330456545,430.14798425085905 C977.0105330456545,386.0052020285393 1012.8677508233322,350.14798425086155 1057.010533045652,350.14798425086155 Z" fill="#ffffff" stroke="#ffffff" stroke-width="2"/>
	</g>
	<g>
		<path d="M673.978075783658,190.1479842509054 C718.120858005978,190.1479842509054 753.9780757836559,226.00520202858334 753.9780757836559,270.1479842509033 C753.9780757836559,314.29076647322324 718.120858005978,350.1479842509011 673.978075783658,350.1479842509011 C629.8352935613381,350.1479842509011 593.9780757836602,314.29076647322324 593.9780757836602,270.1479842509033 C593.9780757836602,226.00520202858334 629.8352935613381,190.1479842509054 673.978075783658,190.1479842509054 Z" transform="matrix(1,0,0,1,0,0)" fill="#ffffff" stroke="#ffffff" stroke-width="2" style="paint-order: stroke;" />
	</g>
	<g>
		<path d="M487.01053304566034,510.1479842508972 C531.1533152679805,510.1479842508972 567.0105330456586,546.0052020285752 567.0105330456586,590.1479842508954 C567.0105330456586,634.2907664732156 531.1533152679805,670.1479842508936 487.01053304566034,670.1479842508936 C442.8677508233402,670.1479842508936 407.0105330456621,634.2907664732156 407.0105330456621,590.1479842508954 C407.0105330456621,546.0052020285752 442.8677508233402,510.1479842508972 487.01053304566034,510.1479842508972 Z" transform="matrix(1,0,0,1,0,0)" fill="#ffffff" stroke="#ffffff" stroke-width="2"/>
	</g>
	<g>
		<path d="M297.01053304666044,350.1479842509059 C341.15331526898024,350.1479842509059 377.010533046658,386.0052020285837 377.010533046658,430.1479842509035 C377.010533046658,474.2907664732233 341.15331526898024,510.1479842509011 297.01053304666044,510.1479842509011 C252.86775082434065,510.1479842509011 217.01053304666286,474.2907664732233 217.01053304666286,430.1479842509035 C217.01053304666286,386.0052020285837 252.86775082434065,350.1479842509059 297.01053304666044,350.1479842509059 Z" fill="#ffffff" stroke="#ffffff" stroke-width="2"/>
	</g>
	<g>
		<path d="M867.010533045658,670.1479842507648 C911.1533152679763,670.1479842507648 947.0105330456529,706.0052020284414 947.0105330456529,750.1479842507597 C947.0105330456529,794.290766473078 911.1533152679763,830.1479842507546 867.010533045658,830.1479842507546 C822.8677508233397,830.1479842507546 787.0105330456631,794.290766473078 787.0105330456631,750.1479842507597 C787.0105330456631,706.0052020284414 822.8677508233397,670.1479842507648 867.010533045658,670.1479842507648 Z" transform="matrix(1,0,0,1,0,0)" fill="#ffffff" stroke="#ffffff" stroke-width="2"/>
	</g>
</g></g></svg>
